<?xml version="1.0" encoding="UTF-8" standalone="no"?>
<svg
   xmlns:dc="http://purl.org/dc/elements/1.1/"
   xmlns:cc="http://creativecommons.org/ns#"
   xmlns:rdf="http://www.w3.org/1999/02/22-rdf-syntax-ns#"
   xmlns:svg="http://www.w3.org/2000/svg"
   xmlns="http://www.w3.org/2000/svg"
   version="1.1"
   id="svg4151"
   viewBox="0 0 372.04724 524.40945"
   height="148mm"
   width="105mm">
  <defs
     id="defs4153" />
  <metadata
     id="metadata4156">
    <rdf:RDF>
      <cc:Work
         rdf:about="">
        <dc:format>image/svg+xml</dc:format>
        <dc:type
           rdf:resource="http://purl.org/dc/dcmitype/StillImage" />
        <dc:title></dc:title>
      </cc:Work>
    </rdf:RDF>
  </metadata>
  <g
     transform="translate(0,-527.95276)"
     id="layer1">
    <path
       style="fill:#020202"
       d="m 55.406741,994.14012 c -0.57186,-0.24861 -1.3319,-0.93094 -1.68907,-1.51626 l -0.64928,-1.0643 0.0797,-208.16521 0.0797,-208.16518 1.05216,-1.05227 1.05222,-1.05228 26.62885,-0.0966 c 24.844329,-0.0901 26.700689,-0.0589 27.699849,0.46642 0.589,0.30967 1.27707,0.96154 1.52892,1.44859 0.39463,0.76311 0.45778,29.62709 0.45675,208.75104 l 0,207.86551 -0.64958,1.0654 c -1.25852,2.0642 -0.23573,1.99362 -28.708649,1.97978 -21.45801,-0.0103 -26.01696,-0.0893 -26.88033,-0.46462 z m 75.898139,-0.0865 c -0.60703,-0.30955 -1.40366,-0.97171 -1.77032,-1.47151 l -0.66665,-0.90879 0,-207.8259 c 0,-198.08066 0.0265,-207.87469 0.56877,-208.86654 0.99482,-1.82033 1.7946,-2.01729 8.18635,-2.01594 5.10511,7.3e-4 5.84087,0.0693 6.75473,0.62652 0.56405,0.34392 1.21583,0.95896 1.4484,1.36676 0.34628,0.60709 0.43798,18.80625 0.50591,100.4416 0.0456,54.83509 0.19828,99.70017 0.33922,99.70017 0.32832,0 5.91255,-6.23397 8.73178,-9.74782 10.69001,-13.32355 19.0212,-30.21759 22.87353,-46.38275 1.96417,-8.24194 3.1965,-17.63906 3.21276,-24.49863 0.0125,-5.24385 0.75438,-7.25181 3.08905,-8.35966 1.42595,-0.67666 3.95212,-0.698 5.21675,-0.0441 1.37385,0.71047 2.90932,2.60213 3.09258,3.81015 0.0879,0.57913 0.23868,2.93882 0.33524,5.24374 0.7482,17.86388 7.33313,34.23261 18.20537,45.25438 4.24541,4.30382 7.78885,6.89951 12.71401,9.31343 6.93843,3.40068 13.35616,4.70555 21.56547,4.38474 9.05187,-0.35373 15.51154,-2.1981 21.60132,-6.16765 9.14084,-5.95831 14.68224,-16.5422 17.47166,-33.37032 1.55792,-9.39877 2.10902,-18.70379 2.11285,-35.67559 0.007,-18.11043 -0.53645,-26.90326 -2.4338,-39.59038 -4.62482,-30.92413 -18.19131,-48.31606 -41.29432,-52.93837 -7.67897,-1.53638 -15.73616,-1.91004 -20.4024,-0.94618 -6.58016,1.35916 -11.56361,4.7966 -13.91381,9.59737 -1.21326,2.47833 -1.63379,4.38162 -1.82949,8.28027 -0.15147,3.01703 -0.12423,3.17216 1.00998,5.75194 2.06302,4.69207 4.58183,6.968 9.99693,9.03315 2.5066,0.95591 3.18348,1.38984 5.02386,3.22069 4.97087,4.94492 6.1332,11.07877 3.81605,20.13863 -1.19015,4.65364 -4.1429,9.92716 -7.66867,13.69619 -12.53672,13.40186 -33.50789,13.56687 -46.08965,0.36265 -4.08548,-4.28767 -6.71741,-9.00068 -8.23566,-14.74791 -0.74467,-2.81876 -0.85013,-3.83869 -0.84881,-8.20777 0,-5.68078 0.38588,-8.85729 1.70144,-14.0663 5.10709,-20.22177 21.56289,-36.61883 42.93789,-42.78462 7.74426,-2.2339 10.36927,-2.53526 21.91661,-2.51603 10.66733,0.0177 16.95494,0.45015 25.67502,1.76562 36.38343,5.48859 61.25359,22.5762 73.69015,50.63046 6.14909,13.87111 9.36252,30.06828 9.74088,49.09874 0.14359,7.21971 -0.14263,11.61139 -1.14577,17.57958 -3.54417,21.08652 -15.23076,39.79935 -33.44666,53.55572 -16.26768,12.28506 -36.49743,19.34065 -57.93719,20.20688 -8.46846,0.34215 -10.86819,-0.34359 -23.38327,-6.68189 -4.81911,-2.44067 -9.69533,-4.72584 -10.83602,-5.07816 -9.46703,-2.92408 -17.52377,-0.0805 -21.56576,7.61148 -1.58802,3.02201 -2.28153,5.0865 -3.07197,9.14427 -0.89186,4.57882 -1.07748,6.91042 -1.05665,13.27322 0.0508,15.50291 3.88206,25.06639 11.48273,28.66207 2.46118,1.16435 4.94525,1.56019 8.51872,1.35754 4.83861,-0.27444 6.71403,-1.01303 20.28634,-7.98963 2.57151,-1.32184 6.1201,-2.90314 7.88585,-3.51402 l 3.21041,-1.11066 7.24217,0.0206 c 7.75029,0.0222 12.20862,0.51577 20.13179,2.22881 28.85908,6.23951 53.29001,24.57999 65.17635,48.92827 3.0259,6.19838 4.49675,10.09854 5.93036,15.72566 2.19638,8.62095 2.93177,15.80084 2.60897,25.47409 -0.61388,18.39955 -3.61983,33.62919 -9.22931,46.76088 -12.32462,28.85169 -37.30259,46.30832 -74.23212,51.87923 -8.72008,1.31548 -15.00769,1.74787 -25.67502,1.76568 -11.54734,0.0191 -14.17235,-0.28217 -21.91661,-2.51609 -21.375,-6.16572 -37.8308,-22.56282 -42.93789,-42.78459 -1.31556,-5.209 -1.69982,-8.3855 -1.70144,-14.06631 0,-4.36906 0.10414,-5.38902 0.84881,-8.20775 1.51825,-5.74724 4.15018,-10.46023 8.23566,-14.74791 12.58176,-13.20422 33.55293,-13.03923 46.08965,0.36263 3.52577,3.76904 6.47852,9.04257 7.66867,13.69621 2.31715,9.05986 1.15482,15.1937 -3.81605,20.13863 -1.84038,1.83084 -2.51726,2.26476 -5.02386,3.22069 -5.41517,2.06514 -7.93391,4.34107 -9.99693,9.03314 -1.13421,2.57978 -1.16145,2.73493 -1.00998,5.75194 0.1957,3.89865 0.61623,5.80195 1.82949,8.2803 2.3502,4.80071 7.33365,8.23817 13.91381,9.59737 6.3676,1.31527 19.29027,0.0199 27.16177,-2.72363 3.92946,-1.36943 8.7836,-3.84644 11.81583,-6.02972 3.27922,-2.36101 8.22433,-7.51718 10.72253,-11.18019 8.07883,-11.84528 12.49028,-28.69958 13.94133,-53.26341 0.8176,-13.84042 0.68395,-33.27009 -0.31095,-45.22316 -2.85684,-34.32174 -14.86726,-49.2712 -40.38582,-50.26843 -8.20931,-0.32077 -14.62704,0.9841 -21.56547,4.38475 -4.92516,2.41392 -8.4686,5.00963 -12.71401,9.31346 -10.83109,10.98005 -17.40985,27.29187 -18.1894,45.09985 -0.10458,2.38991 -0.26238,4.81911 -0.35062,5.39826 -0.18399,1.20828 -1.71968,3.09989 -3.09317,3.81014 -1.26463,0.65395 -3.7908,0.63261 -5.21675,-0.0441 -2.32775,-1.10458 -3.08427,-3.07673 -3.08427,-8.04071 0,-4.2956 -0.71978,-11.85025 -1.63107,-17.11847 -3.86145,-22.32408 -14.33287,-43.43815 -30.17928,-60.85235 -1.49013,-1.63752 -2.83543,-2.97732 -2.98954,-2.97732 -0.15824,0 -0.3161,43.32777 -0.36269,99.53923 -0.0714,86.11302 -0.14528,99.66207 -0.54823,100.45023 -0.91247,1.7846 -2.28499,2.14685 -8.13152,2.14626 -4.35574,0 -5.43012,-0.0957 -6.34693,-0.56324 z"
       id="path3142" />
  </g>
</svg>
