<svg version="1.1" viewBox="151.34033898305086 273.624 439.307372881356 505.15200000000004" id="svg3033" xmlns:xlink="http://www.w3.org/1999/xlink" xmlns="http://www.w3.org/2000/svg" style="max-height: 500px" width="439.307372881356" height="505.15200000000004">
  <title id="title3077">Bass Clef</title>
  <defs id="defs3035">
    <linearGradient x1="-543.25" y1="770.94" gradientTransform="translate(729.67 -22.021)" x2="-190.88" gradientUnits="userSpaceOnUse" y2="231.09" id="linearGradient3770">
      <stop offset="0" stop-opacity=".82639" id="stop3015-9"/>
      <stop offset="1" id="stop3017-0"/>
    </linearGradient>
  </defs>
  <g id="layer1">
    <path fill-rule="evenodd" fill="url(#linearGradient3770)" stroke="#000" d="m190.85 451.25c11.661 14.719 32.323 24.491 55.844 24.491 36.401 0 65.889-23.372 65.889-52.214s-29.488-52.214-65.889-52.214c-20.314 4.1522-28.593 9.0007-33.143-2.9091 17.976-54.327 46.918-66.709 96.546-66.709 65.914 0 96.969 59.897 96.969 142.97-18.225 190.63-205.95 286.75-246.57 316.19 5.6938 13.103 5.3954 12.631 5.3954 12.009 189.78-86.203 330.69-204.43 330.69-320.74 0-92.419-58.579-175.59-187.72-172.8-77.575 0-170.32 86.203-118 171.93zm328.1-89.88c0 17.852 14.471 32.323 32.323 32.323s32.323-14.471 32.323-32.323-14.471-32.323-32.323-32.323-32.323 14.471-32.323 32.323zm0 136.75c0 17.852 14.471 32.323 32.323 32.323s32.323-14.471 32.323-32.323-14.471-32.323-32.323-32.323-32.323 14.471-32.323 32.323z" id="path3"/>
  </g>
  <metadata>
    
      
        image/svg+xml
        
        
        
          
            Openclipart
          
        
        Bass Clef
        2011-04-14T23:54:02
        A single black &amp; white bass clef.
        http://openclipart.org/detail/132547/bass-clef-by-jaschon
        
          
            jaschon
          
        
        
          
            bass
            black and white
            clef
            clip art
            clipart
            f clef
            f-clef
            flag
            music
            music note
            musical notation
            sound
            staff
          
        
      
      
        
        
        
      
    
  </metadata>
</svg>